<?xml version="1.0" standalone="no"?>
<!DOCTYPE svg PUBLIC "-//W3C//DTD SVG 20010904//EN"
 "http://www.w3.org/TR/2001/REC-SVG-20010904/DTD/svg10.dtd">
<svg version="1.0" xmlns="http://www.w3.org/2000/svg"
 width="590.000000pt" height="590.000000pt" viewBox="0 0 590.000000 590.000000"
 preserveAspectRatio="xMidYMid meet">
<metadata>
Created by potrace 1.11, written by Peter Selinger 2001-2013
</metadata>
<g transform="translate(0.000000,590.000000) scale(0.100000,-0.100000)"
fill="#000000" stroke="none">
<path d="M2758 5885 c-2 -1 -37 -6 -78 -9 -94 -9 -149 -16 -176 -21 -12 -3
-39 -7 -60 -11 -407 -62 -903 -275 -1247 -535 -506 -383 -865 -889 -1051
-1479 -20 -63 -38 -124 -40 -135 -3 -11 -16 -69 -29 -130 -14 -60 -28 -135
-32 -165 -4 -30 -9 -64 -11 -75 -31 -159 -25 -638 10 -835 44 -248 79 -376
166 -615 25 -71 144 -315 194 -400 19 -33 42 -73 51 -88 43 -75 202 -288 290
-387 87 -99 257 -260 361 -343 117 -94 277 -207 294 -207 5 0 10 -4 10 -10 0
-5 4 -10 9 -10 4 0 46 -22 92 -48 173 -100 448 -216 623 -263 76 -21 271 -65
321 -73 140 -22 169 -25 275 -33 159 -12 472 -5 570 11 14 3 48 7 75 11 288
35 664 158 955 311 407 216 803 571 1059 953 171 254 332 599 397 851 20 78
26 107 44 190 25 118 28 139 29 168 1 15 7 22 21 22 18 0 20 7 20 80 l0 80
-80 0 -80 0 0 45 c0 39 3 45 21 45 15 0 19 4 15 16 -3 9 -6 20 -6 25 0 5 -38
9 -85 9 -73 0 -86 -3 -95 -19 -14 -27 -13 -31 10 -31 17 0 20 -7 20 -45 l0
-45 -85 0 -85 0 0 45 c0 31 4 45 13 45 8 0 44 67 84 158 l70 157 -34 3 c-31 3
-33 5 -33 43 l0 39 83 0 83 0 84 -192 c46 -106 87 -197 92 -202 4 -6 8 126 8
292 0 289 -1 302 -19 302 -15 0 -20 10 -26 48 -5 26 -9 53 -11 60 -78 396
-206 714 -429 1068 -176 277 -478 592 -760 789 -195 137 -429 264 -615 335
-47 17 -94 36 -105 40 -30 13 -148 50 -173 55 -12 2 -25 6 -30 8 -10 7 -240
58 -282 63 -19 3 -46 7 -60 9 -14 3 -47 8 -75 11 -27 3 -66 8 -85 11 -37 5
-466 13 -472 8z m389 -129 c62 -4 122 -9 134 -11 11 -2 55 -9 97 -15 626 -87
1257 -433 1688 -925 241 -276 423 -584 540 -918 20 -56 37 -109 39 -117 2 -8
13 -46 25 -85 20 -69 44 -178 56 -252 3 -21 8 -41 11 -45 2 -5 -208 -8 -467
-8 -368 0 -471 3 -474 13 -38 124 -85 258 -114 322 -208 451 -569 798 -1027
988 -74 31 -242 82 -315 97 -30 5 -66 13 -80 15 -14 3 -47 8 -75 11 -27 2 -66
7 -85 10 -43 6 -290 6 -345 -1 -171 -19 -273 -41 -420 -90 -491 -161 -888
-507 -1121 -974 -31 -63 -57 -119 -58 -125 -1 -6 -4 -15 -8 -21 -21 -35 -89
-281 -102 -370 -4 -23 -8 -52 -11 -65 -6 -32 -18 -210 -18 -275 0 -59 12 -234
18 -255 2 -8 6 -33 10 -55 3 -22 13 -69 21 -105 9 -36 18 -75 20 -87 20 -101
145 -383 229 -513 153 -239 370 -454 605 -601 189 -117 467 -227 644 -253 21
-4 41 -8 45 -10 32 -19 433 -29 557 -13 350 43 706 193 974 412 334 273 574
659 664 1068 l6 27 466 0 c438 0 465 -1 461 -17 -3 -10 -8 -36 -12 -58 -4 -22
-9 -51 -11 -65 -3 -14 -18 -77 -34 -140 -92 -361 -254 -699 -484 -1005 -33
-44 -65 -85 -71 -91 -5 -6 -43 -48 -83 -92 -41 -45 -99 -106 -130 -136 -55
-53 -70 -66 -144 -133 -47 -41 -207 -160 -283 -209 -199 -128 -424 -237 -642
-309 -99 -33 -290 -84 -338 -90 -11 -2 -49 -8 -85 -15 -103 -18 -109 -19 -189
-27 -95 -10 -460 -10 -562 0 -42 4 -100 12 -130 17 -30 6 -71 13 -91 15 -171
22 -491 126 -713 231 -631 299 -1173 885 -1412 1529 -8 22 -19 49 -23 60 -51
117 -123 428 -145 620 -24 211 -25 530 -1 662 2 10 7 45 12 78 4 33 8 62 9 65
1 3 5 25 9 50 25 143 90 364 157 534 99 249 300 582 464 765 100 114 219 234
285 291 14 12 36 31 50 43 50 43 199 154 251 187 30 19 56 38 57 42 2 5 8 8
13 8 5 0 32 15 61 33 138 88 532 260 613 268 6 1 17 5 26 10 9 4 27 10 40 13
13 3 74 16 134 30 61 14 128 27 150 31 22 3 56 8 75 11 44 8 71 10 200 19 58
4 106 8 107 9 4 3 176 -2 280 -8z m-32 -1976 c17 -6 30 -10 30 -9 0 10 114
-31 181 -66 139 -72 260 -178 337 -298 l17 -27 -745 0 c-594 0 -745 3 -739 13
53 89 199 230 298 286 86 49 223 99 294 108 26 3 49 7 51 9 10 9 248 -5 276
-16z m-685 -630 c24 -14 58 -45 75 -68 27 -39 30 -53 33 -130 3 -80 1 -92 -25
-142 -21 -40 -42 -63 -78 -85 -48 -30 -51 -30 -207 -33 l-158 -4 0 41 c0 37 2
41 25 41 l25 0 0 160 0 160 -25 0 c-23 0 -25 4 -25 46 l0 46 158 -4 c146 -3
160 -5 202 -28z m491 -166 c56 -130 90 -198 102 -201 13 -4 17 -16 17 -49 l0
-44 -90 0 -90 0 0 45 c0 39 3 45 21 45 15 0 19 4 15 16 -3 9 -6 20 -6 25 0 5
-38 9 -85 9 -73 0 -86 -3 -95 -19 -14 -27 -13 -31 10 -31 17 0 20 -7 20 -45
l0 -45 -85 0 -85 0 0 45 c0 31 4 45 13 45 8 0 44 67 84 158 l70 157 -34 3
c-31 3 -33 5 -33 43 l0 39 83 0 84 0 84 -196z m408 46 c68 -82 124 -150 125
-150 0 0 0 47 -2 105 l-3 105 -35 0 c-34 0 -34 0 -34 45 l0 45 110 0 110 0 0
-45 c0 -41 -2 -45 -25 -45 l-25 0 0 -200 0 -200 -29 0 c-25 0 -46 20 -152 143
-67 78 -126 146 -131 152 -4 5 -8 -41 -8 -103 l0 -112 30 0 c28 0 30 -2 30
-40 l0 -40 -105 0 -105 0 0 40 c0 36 3 40 25 40 l25 0 0 160 0 160 -30 0 c-29
0 -30 2 -30 45 l0 45 68 0 67 0 124 -150z m521 105 c0 -41 -2 -45 -25 -45
l-25 0 0 -160 0 -160 25 0 c23 0 25 -4 25 -40 l0 -40 -100 0 -100 0 0 40 c0
36 3 40 25 40 l25 0 0 160 0 160 -25 0 c-23 0 -25 4 -25 45 l0 45 100 0 100 0
0 -45z m435 -2 c3 -27 7 -58 9 -70 2 -18 -2 -23 -18 -23 -11 0 -31 -3 -43 -6
-19 -5 -23 -1 -28 30 l-7 36 -69 0 -69 0 0 -60 0 -60 105 0 105 0 0 -45 0 -45
-105 0 -105 0 0 -60 0 -60 70 0 c70 0 71 0 77 30 5 28 8 30 51 30 l45 0 -7
-46 c-3 -26 -6 -57 -6 -70 l0 -24 -190 0 -190 0 0 40 c0 36 3 40 25 40 l25 0
0 165 0 165 -25 0 c-22 0 -25 4 -25 40 l0 40 184 0 185 0 6 -47z m285 2 c0
-45 0 -45 -35 -45 l-35 0 0 -160 0 -160 64 0 c68 0 75 6 76 68 0 20 5 22 46
22 l47 0 -7 -46 c-3 -26 -6 -64 -6 -85 l0 -39 -185 0 -185 0 0 40 c0 36 3 40
25 40 l25 0 0 160 0 160 -25 0 c-23 0 -25 4 -25 45 l0 45 110 0 110 0 0 -45z
m530 0 c0 -41 -2 -45 -25 -45 -24 0 -25 -3 -25 -55 l0 -55 105 0 105 0 0 55
c0 52 -1 55 -25 55 -23 0 -25 4 -25 45 l0 45 100 0 100 0 0 -45 c0 -41 -2 -45
-25 -45 l-25 0 0 -155 0 -155 25 0 c23 0 25 -4 25 -45 l0 -45 -100 0 -100 0 0
45 c0 41 2 45 25 45 24 0 25 3 25 60 l0 60 -105 0 -105 0 0 -60 c0 -57 1 -60
25 -60 23 0 25 -4 25 -45 l0 -45 -100 0 -100 0 0 45 c0 41 2 45 25 45 l25 0 0
155 0 155 -25 0 c-23 0 -25 4 -25 45 l0 45 100 0 100 0 0 -45z m-1390 -609 c0
-10 -46 -84 -79 -126 -127 -163 -287 -269 -487 -321 -122 -32 -302 -33 -422
-1 -212 57 -390 183 -512 362 -22 33 -43 66 -46 75 -5 13 80 15 770 15 427 0
776 -2 776 -4z"/>
<path d="M2220 2930 l0 -160 56 0 c112 0 158 46 158 160 0 112 -47 160 -158
160 l-56 0 0 -160z"/>
<path d="M2776 2975 c-14 -36 -26 -67 -26 -70 0 -3 25 -5 55 -5 l54 0 -25 68
c-14 37 -27 68 -29 70 -1 2 -14 -27 -29 -63z"/>
<path d="M5656 2975 c-14 -36 -26 -67 -26 -70 0 -3 25 -5 55 -5 l54 0 -25 68
c-14 37 -27 68 -29 70 -1 2 -14 -27 -29 -63z"/>
</g>
</svg>
